<?xml version="1.0" encoding="UTF-8" standalone="no"?>
<svg width="22px" height="17px" viewBox="0 0 22 17" version="1.1" xmlns="http://www.w3.org/2000/svg" xmlns:xlink="http://www.w3.org/1999/xlink">
    <!-- Generator: Sketch 3.7.1 (28215) - http://www.bohemiancoding.com/sketch -->
    <title></title>
    <desc>Created with Sketch.</desc>
    <defs></defs>
    <g id="DashBoard4.0Page" stroke="none" stroke-width="1" fill="none" fill-rule="evenodd">
        <g id="LoginPage4.0" transform="translate(-766.000000, -372.000000)" fill="#FFFFFF">
            <g id="form-group" transform="translate(404.000000, 336.000000)">
                <path d="M383.379491,40.0089131 C383.379491,39.6740913 383.245562,39.3392694 383.004491,39.0981977 L381.18306,37.276767 C380.941988,37.0356953 380.607166,36.9017665 380.272344,36.9017665 C379.937523,36.9017665 379.602701,37.0356953 379.361629,37.276767 L370.575904,46.0758846 L366.6384,42.124987 C366.397328,41.8839153 366.062506,41.7499866 365.727684,41.7499866 C365.392862,41.7499866 365.058041,41.8839153 364.816969,42.124987 L362.995538,43.9464178 C362.754466,44.1874895 362.620538,44.5223113 362.620538,44.8571332 C362.620538,45.191955 362.754466,45.5267768 362.995538,45.7678485 L367.843758,50.6160686 L369.665189,52.4374993 C369.906261,52.678571 370.241082,52.8124998 370.575904,52.8124998 C370.910726,52.8124998 371.245548,52.678571 371.48662,52.4374993 L373.30805,50.6160686 L383.004491,40.9196285 C383.245562,40.6785567 383.379491,40.3437349 383.379491,40.0089131 L383.379491,40.0089131 Z" id=""></path>
            </g>
        </g>
    </g>
</svg>