<?xml version="1.0" encoding="UTF-8" standalone="no"?>
<svg width="21px" height="21px" viewBox="0 0 21 21" version="1.1" xmlns="http://www.w3.org/2000/svg" xmlns:xlink="http://www.w3.org/1999/xlink">
    <!-- Generator: Sketch 3.7.1 (28215) - http://www.bohemiancoding.com/sketch -->
    <title></title>
    <desc>Created with Sketch.</desc>
    <defs></defs>
    <g id="DashBoard4.0Page" stroke="none" stroke-width="1" fill="none" fill-rule="evenodd">
        <g id="LoginPage4.0" transform="translate(-717.000000, -370.000000)" fill="#E9E9E9">
            <g id="form-group" transform="translate(404.000000, 336.000000)">
                <path d="M333.236631,46.5714209 C333.236631,46.3437421 333.049131,46.142849 332.808059,46.142849 L330.236628,46.142849 C330.035735,46.142849 329.901806,46.2633848 329.834841,46.450885 C329.607163,46.9866 329.446448,47.4955292 329.125019,48.0178512 C327.879482,50.0535679 325.669658,51.2857122 323.285727,51.2857122 C321.558046,51.2857122 319.883937,50.6160686 318.625007,49.4374958 L320.45983,47.6026721 C320.620545,47.4419577 320.714295,47.2276717 320.714295,46.9999928 C320.714295,46.5312423 320.325902,46.142849 319.857151,46.142849 L313.857144,46.142849 C313.388393,46.142849 313,46.5312423 313,46.9999928 L313,53 C313,53.4687506 313.388393,53.8571439 313.857144,53.8571439 C314.084823,53.8571439 314.299109,53.7633938 314.459823,53.6026793 L316.187504,51.8749987 C318.089292,53.6830365 320.620545,54.7142878 323.232155,54.7142878 C328.174125,54.7142878 332.084844,51.4062481 333.223238,46.665171 C333.236631,46.6383853 333.236631,46.5982067 333.236631,46.5714209 L333.236631,46.5714209 Z M333.571453,35.8571224 C333.571453,35.3883719 333.18306,34.9999785 332.714309,34.9999785 C332.48663,34.9999785 332.272344,35.0937287 332.11163,35.2544431 L330.370556,36.9821238 C328.468768,35.1874788 325.91073,34.1428347 323.285727,34.1428347 C318.343756,34.1428347 314.392859,37.4374814 313.241072,42.1919514 L313.241072,42.2857015 C313.241072,42.5133804 313.428572,42.7142735 313.669644,42.7142735 L316.334825,42.7142735 C316.535719,42.7142735 316.669647,42.5937376 316.736612,42.4062374 C316.96429,41.8705224 317.125005,41.3615933 317.446434,40.8392712 C318.691971,38.8035545 320.901795,37.5714102 323.285727,37.5714102 C325.013407,37.5714102 326.687516,38.227661 327.959839,39.4062338 L326.111623,41.2544503 C325.950908,41.4151648 325.857158,41.6294507 325.857158,41.8571296 C325.857158,42.3258801 326.245552,42.7142735 326.714302,42.7142735 L332.714309,42.7142735 C333.18306,42.7142735 333.571453,42.3258801 333.571453,41.8571296 L333.571453,35.8571224 Z" id=""></path>
            </g>
        </g>
    </g>
</svg>